<svg height="52" name="smart-icon-approved" viewBox="0 0 52 52" width="52" xmlns="http://www.w3.org/2000/svg"><g stroke="#434f5a"><g fill="none" stroke-width="1.5"><circle cx="26" cy="26" r="26" stroke="none"/><circle cx="26" cy="26" fill="none" r="25.25"/></g><path d="m2095.094 340.764-.257-.133c-.426-.221-10.446-5.421-12.606-6.971a7.75 7.75 0 0 1 -2.822-4.641l-.007-.088v-21.393a1.765 1.765 0 0 1 1.749-1.752 20.753 20.753 0 0 0 12.619-4.077 1.95 1.95 0 0 1 2.458.094c2.694 2.321 10.387 3.516 12.68 3.827a1.907 1.907 0 0 1 1.644 1.884v20.879a6.548 6.548 0 0 1 -2.57 5.273l-.044.027zm-14.61-11.883a6.718 6.718 0 0 0 2.377 3.9c1.911 1.371 10.607 5.918 12.218 6.757l12.312-6.776a5.474 5.474 0 0 0 2.08-4.367v-20.882a.821.821 0 0 0 -.707-.812c-3.035-.411-10.4-1.633-13.241-4.079a.853.853 0 0 0 -1.089-.058 21.84 21.84 0 0 1 -13.272 4.3.671.671 0 0 0 -.677.67z" fill="#434f5a" stroke-width=".5" transform="translate(-2068.421 -294.45)"/><path d="m2101.6 343.906-.236-.123c-.323-.167-7.926-4.113-9.57-5.293a5.97 5.97 0 0 1 -2.175-3.576l-.007-.08v-16.221a1.426 1.426 0 0 1 1.413-1.416 15.649 15.649 0 0 0 9.516-3.073 1.567 1.567 0 0 1 1.976.074c2.025 1.745 7.837 2.647 9.569 2.881a1.534 1.534 0 0 1 1.323 1.516v15.832a5.06 5.06 0 0 1 -1.987 4.071l-.04.025zm-10.991-9.118a5 5 0 0 0 1.766 2.894c1.429 1.025 7.891 4.407 9.212 5.095l9.29-5.113a4.067 4.067 0 0 0 1.537-3.237v-15.833a.535.535 0 0 0 -.46-.529c-2.309-.313-7.914-1.242-10.086-3.113a.561.561 0 0 0 -.714-.042 16.65 16.65 0 0 1 -10.117 3.283.422.422 0 0 0 -.426.42z" fill="#434f5a" stroke-width=".5" transform="translate(-2074.846 -302.267)"/></g><path d="m2109.059 358.7 3.841 4.327a.817.817 0 0 0 1.148 0l10.023-11.067c.7-.773-.445-1.924-1.148-1.148l-10.023 11.069h1.148l-3.841-4.327c-.695-.783-1.84.368-1.148 1.148z" fill="#434f5a" transform="translate(-2089.899 -330.369)"/></svg>