<svg xmlns="http://www.w3.org/2000/svg" xmlns:xlink="http://www.w3.org/1999/xlink" width="279.859" height="23.958" viewBox="0 0 279.859 23.958"><defs><clipPath id="a"><rect width="279.859" height="23.958" fill="none"/></clipPath></defs><g clip-path="url(#a)"><path d="M2.433,16.966a3.857,3.857,0,0,0,1.087,1.1,4.276,4.276,0,0,0,2.353.653,3.744,3.744,0,0,0,2.6-.841,3.042,3.042,0,0,0,.917-2.367,3.057,3.057,0,0,0-.857-2.149,10.84,10.84,0,0,0-3.046-2.014,11.619,11.619,0,0,1-3.712-2.57A4.926,4.926,0,0,1,.685,5.516,4.786,4.786,0,0,1,2.248,1.807,5.875,5.875,0,0,1,6.33.4a5.859,5.859,0,0,1,2.716.608,5.383,5.383,0,0,1,1.994,1.824A.279.279,0,0,1,11,3.2l-1.026.956a.839.839,0,0,1-.708.209.822.822,0,0,1-.512-.315,2.816,2.816,0,0,0-.809-.63,3.637,3.637,0,0,0-1.715-.4,3.054,3.054,0,0,0-2.073.653,2.181,2.181,0,0,0-.729,1.743,2.592,2.592,0,0,0,.564,1.7,8.585,8.585,0,0,0,2.4,1.7l.094.041c3.75,2.013,5.646,4.227,5.646,6.585a5.625,5.625,0,0,1-1.713,4.321,6.576,6.576,0,0,1-4.629,1.578A6.679,6.679,0,0,1,2.246,20.4,5.44,5.44,0,0,1,.021,17.813.278.278,0,0,1,.1,17.492l.966-.825a.881.881,0,0,1,.646-.2,1.1,1.1,0,0,1,.723.5" transform="translate(0 -0.251)" fill="#2e2e2d"/><path d="M69.476,20.69h1.507a.28.28,0,0,0,.277-.322L68.164.238A.277.277,0,0,0,67.927,0a.28.28,0,0,0-.293.16l-7.116,15.47L53.339.163a.28.28,0,0,0-.531.074l-3.146,20.13a.28.28,0,0,0,.277.323h1.511a1.122,1.122,0,0,0,1.1-.995l1.639-11.66,6.019,13.038a.28.28,0,0,0,.508,0L66.754,8.034l1.636,11.638s.172,1,1.087,1.018" transform="translate(-30.894 0)" fill="#2e2e2d"/><path d="M254.413,21.588h1.3a.28.28,0,0,0,.28-.28V3.97h3.419s1.243.076,1.211-1.024V1.724a.28.28,0,0,0-.28-.28H248.913a.28.28,0,0,0-.28.28V2.959a.99.99,0,0,0,1.1,1.01h3.515v16.6s-.074,1.013,1.163,1.019" transform="translate(-154.678 -0.898)" fill="#2e2e2d"/><path d="M206.8,21.554h1.755a.28.28,0,0,0,.237-.428L204.3,11.817A4.791,4.791,0,0,0,207.434,7a5.085,5.085,0,0,0-1.744-4.128,7.608,7.608,0,0,0-4.954-1.428h-5.028a.28.28,0,0,0-.28.28V21.308a.28.28,0,0,0,.28.28h1.484a.949.949,0,0,0,.978-1V4.059h2.364a5.483,5.483,0,0,1,3.2.738,2.652,2.652,0,0,1,.964,2.279,2.408,2.408,0,0,1-.933,2.143,5.782,5.782,0,0,1-3.194.685h-.186l2.648,5.8,2.256,4.89a1.45,1.45,0,0,0,1.517.963" transform="translate(-121.578 -0.898)" fill="#2e2e2d"/><path d="M360.178,12.175h0a5.211,5.211,0,0,0-2.369-1.505,3.535,3.535,0,0,0,1.207-1.092,4.954,4.954,0,0,0,.8-2.884,4.978,4.978,0,0,0-1.644-3.932A6.586,6.586,0,0,0,353.7,1.338h-3.945a.32.32,0,0,0-.32.32V21.242a.32.32,0,0,0,.32.32h4.515a8.572,8.572,0,0,0,5.4-1.44,5.332,5.332,0,0,0,1.832-4.41,5.131,5.131,0,0,0-1.325-3.537m-6.138-1.249.019.918a.45.45,0,0,0,.455.464h0a5.469,5.469,0,0,1,2.989.888,2.918,2.918,0,0,1,1.177,2.515,2.9,2.9,0,0,1-.968,2.418,5.567,5.567,0,0,1-3.367.788h-2.09V3.982H353.6a3.988,3.988,0,0,1,2.608.7,2.759,2.759,0,0,1,.789,2.193,2.571,2.571,0,0,1-.892,2.152,2.321,2.321,0,0,1-.736.4c-1.4.438-1.326,1.5-1.326,1.5" transform="translate(-217.388 -0.832)" fill="#2e2e2d"/><path d="M609.837,3.308a10.967,10.967,0,0,0-15.094,0,10.181,10.181,0,0,0-3.031,7.495,10.169,10.169,0,0,0,3.056,7.463,10.829,10.829,0,0,0,15.044.007,10.152,10.152,0,0,0,3.063-7.47,10.173,10.173,0,0,0-3.037-7.495m-2.019,13.048a7.92,7.92,0,0,1-11.068.007,7.653,7.653,0,0,1-2.217-5.56,7.856,7.856,0,0,1,2.134-5.528,7.353,7.353,0,0,1,5.626-2.283,7.5,7.5,0,0,1,5.531,2.252,7.629,7.629,0,0,1,2.229,5.559,7.624,7.624,0,0,1-2.235,5.553" transform="translate(-368.112 -0.185)" fill="#2e2e2d"/><path d="M677.844,3.308a10.967,10.967,0,0,0-15.094,0,10.181,10.181,0,0,0-3.031,7.495,10.169,10.169,0,0,0,3.056,7.463,10.829,10.829,0,0,0,15.044.007,10.15,10.15,0,0,0,3.063-7.47,10.172,10.172,0,0,0-3.037-7.495m-2.019,13.048a7.92,7.92,0,0,1-11.068.007,7.652,7.652,0,0,1-2.217-5.56,7.857,7.857,0,0,1,2.134-5.528A7.353,7.353,0,0,1,670.3,2.992a7.5,7.5,0,0,1,5.531,2.252A7.629,7.629,0,0,1,678.06,10.8a7.624,7.624,0,0,1-2.235,5.553" transform="translate(-410.42 -0.185)" fill="#2e2e2d"/><path d="M555.752,12.347h0a5.211,5.211,0,0,0-2.369-1.5A3.54,3.54,0,0,0,554.59,9.75a4.951,4.951,0,0,0,.8-2.884,4.98,4.98,0,0,0-1.644-3.932,6.587,6.587,0,0,0-4.473-1.424h-3.944a.32.32,0,0,0-.32.32V21.414a.32.32,0,0,0,.32.32h4.515a8.57,8.57,0,0,0,5.4-1.44,5.33,5.33,0,0,0,1.832-4.41,5.13,5.13,0,0,0-1.325-3.537M553.287,18.3a5.57,5.57,0,0,1-3.367.788h-2.09V4.154h1.342a3.988,3.988,0,0,1,2.607.7,2.758,2.758,0,0,1,.789,2.193,2.572,2.572,0,0,1-.892,2.152,3.6,3.6,0,0,1-1.7.646.439.439,0,0,0-.381.475l.035,1.7a.451.451,0,0,0,.455.464h0a5.471,5.471,0,0,1,2.99.888,2.918,2.918,0,0,1,1.177,2.515,2.9,2.9,0,0,1-.969,2.418" transform="translate(-339.058 -0.939)" fill="#2e2e2d"/><path d="M484.939,20.77h1.507a.28.28,0,0,0,.277-.322L483.627.318a.277.277,0,0,0-.237-.235.28.28,0,0,0-.293.16l-7.116,15.47L468.8.243a.28.28,0,0,0-.531.074l-3.146,20.13a.28.28,0,0,0,.277.323h1.511a1.122,1.122,0,0,0,1.1-.995l1.639-11.66,6.019,13.038a.28.28,0,0,0,.509,0l6.032-13.039,1.636,11.638s.172,1,1.087,1.018" transform="translate(-289.359 -0.05)" fill="#2e2e2d"/><path d="M726.242.84h.484l.959,2.143L728.641.84h.48V3.573h-.448V1.7l-.834,1.872h-.311L726.691,1.7V3.573h-.448Z" transform="translate(-451.805 -0.523)" fill="#2e2e2d"/><path d="M736.362.84c.649,0,.967.374.967.818a.778.778,0,0,1-.633.783l.676,1.133h-.535l-.629-1.093h-.342V3.573h-.448V.84Zm0,.366h-.5v.916h.5c.35,0,.508-.193.508-.464s-.158-.452-.508-.452" transform="translate(-457.514 -0.523)" fill="#2e2e2d"/><path d="M136.822.2a7.274,7.274,0,0,0-7.265,7.265V20.543a.252.252,0,0,0,.285.271h1.5a.971.971,0,0,0,.934-1.047V7.464a4.544,4.544,0,1,1,9.089,0v2.809h-5.388a1,1,0,0,0-1.037,1.078v1.417s0,.226.279.226h6.146v6.784a1,1,0,0,0,1.078,1.037h1.417s.226,0,.226-.279V7.464A7.274,7.274,0,0,0,136.822.2" transform="translate(-80.599 -0.124)" fill="#2e2e2d"/><path d="M411.038.152a7.274,7.274,0,0,0-7.266,7.265V20.5a.252.252,0,0,0,.286.271h1.5a.971.971,0,0,0,.935-1.047V7.417a4.544,4.544,0,1,1,9.089,0v2.809h-5.388a1,1,0,0,0-1.037,1.078v1.417s0,.226.279.226h6.146v6.784a1,1,0,0,0,1.077,1.037h1.418s.226,0,.226-.279V7.417A7.273,7.273,0,0,0,411.038.152" transform="translate(-251.192 -0.095)" fill="#2e2e2d"/></g></svg>