<svg height="51.796" name="smart-icon-deliver" viewBox="0 0 51.796 51.796" width="51.796" xmlns="http://www.w3.org/2000/svg"><g fill="none" stroke="#434f5a" stroke-width="1.5"><circle cx="25.898" cy="25.898" r="25.898" stroke="none"/><circle cx="25.898" cy="25.898" fill="none" r="25.148"/></g><g fill="#434f5a"><path d="m1338.4 334.839v-1.3l22.157-.027a.8.8 0 0 0 .777-.8l-.008-23.229a.8.8 0 0 0 -.8-.8h-19.193v-1.3h19.193a2.1 2.1 0 0 1 2.1 2.1l.008 23.229a2.111 2.111 0 0 1 -2.063 2.1z" transform="translate(-1334.778 -297.993)"/><path d="m1423.67 351.208-.007-1.3 4.223-.023a5.165 5.165 0 0 1 1.4-2.895 4.348 4.348 0 0 1 3.253-1.155 4.544 4.544 0 0 1 4.628 4.047h2.931a.682.682 0 0 0 .681-.681v-7.667l-6.42-9.834a1.91 1.91 0 0 0 -1.6-.869h-7.668v-1.3h7.668a3.207 3.207 0 0 1 2.693 1.458l6.63 10.157v8.054a1.983 1.983 0 0 1 -1.98 1.98h-4.168l-.007-.642a3.344 3.344 0 0 0 -3.411-3.406 3.112 3.112 0 0 0 -2.322.79 4.208 4.208 0 0 0 -1.061 2.615l-.007.639z" transform="translate(-1397.889 -314.389)"/><path d="m1440.947 350.552a1.747 1.747 0 0 1 -1.749-1.744v-5.349a1.746 1.746 0 0 1 1.744-1.744h6.763v1.3h-6.763a.445.445 0 0 0 -.445.445v5.349a.445.445 0 0 0 .445.445l11.976-.093.01 1.3z" transform="translate(-1409.388 -323.405)"/><path d="m1445.2 401.056a4.466 4.466 0 1 1 4.466-4.466 4.471 4.471 0 0 1 -4.466 4.466zm0-7.633a3.167 3.167 0 1 0 3.167 3.167 3.171 3.171 0 0 0 -3.167-3.167z" transform="translate(-1410.525 -360.716)"/><path d="m40.298 31.477h2.964v1.299h-2.964z"/><path d="m2.355 32.359h24.847v1.299h-24.847z"/></g></svg>