<svg height="52" name="smart-icon-moon" viewBox="0 0 52 52" width="52" xmlns="http://www.w3.org/2000/svg"><g fill="none" stroke="#434f5a" stroke-width="1.5"><circle cx="26" cy="26" r="26" stroke="none"/><circle cx="26" cy="26" fill="none" r="25.25"/></g><g fill="#434f5a"><path d="m1609.3 341.945c-.2 0-.406 0-.61-.009a20.6 20.6 0 0 1 -7.427-39.543 1.137 1.137 0 0 1 1.373 1.7 18.035 18.035 0 0 0 14.631 28.4h.084a17.892 17.892 0 0 0 6.908-1.373 1.487 1.487 0 0 1 1.78 2.241 20.6 20.6 0 0 1 -16.739 8.584zm-8.464-37.762a19.144 19.144 0 1 0 24.025 28.331.048.048 0 0 0 -.022-.062 19.424 19.424 0 0 1 -7.489 1.491h-.091a19.465 19.465 0 0 1 -16.424-29.76z" transform="translate(-1583.607 -295.712)"/><path d="m32.509 9.961h1.107v6.387h-1.107z"/><path d="m29.868 12.499h6.284v1.107h-6.284z"/><path d="m36.258 21.643h1.107v5.967h-1.107z"/><path d="m33.827 23.978h5.871v1.107h-5.871z"/><path d="m27.179 17.109h1.107v7.629h-1.107z"/><path d="m23.917 20.248h7.505v1.107h-7.505z"/></g></svg>