<svg name="smart-icon-tech" viewBox="0 0 64 64" height="52" width="52" xmlns="http://www.w3.org/2000/svg"><g stroke="#434f5a"><g fill="none" stroke-width="1.5"><circle cx="32" cy="32" r="32" stroke="none"/><circle cx="32" cy="32" fill="none" r="31.25"/></g><g fill="#434f5a" stroke-width=".2"><path d="m.4 3.608 2.566 4.492a.642.642 0 0 0 .4.3l2.4.6 8.222 8.222.908-.908-8.35-8.35a.641.641 0 0 0 -.3-.169l-2.3-.578-2.191-3.823 1.876-1.876 3.832 2.19.578 2.3a.641.641 0 0 0 .169.3l8.35 8.35.908-.908-8.222-8.22-.6-2.4a.643.643 0 0 0 -.3-.4l-4.5-2.567a.642.642 0 0 0 -.771.1l-2.569 2.573a.642.642 0 0 0 -.106.772zm0 0" transform="translate(12.41 12.649)"/><path d="m189.02 174.627-14.131 14.131-.908-.908 14.131-14.131zm0 0" transform="translate(-149.508 -149.245)"/><path d="m54.727 399.147a.642.642 0 0 0 -.551-.312h-3.854a.642.642 0 0 0 -.55.312l-1.927 3.212a.642.642 0 0 0 0 .662l1.927 3.212a.642.642 0 0 0 .55.312h3.854a.643.643 0 0 0 .551-.312l1.927-3.212a.642.642 0 0 0 0-.662zm-.914 6.112h-3.127l-1.542-2.569 1.542-2.569h3.127l1.542 2.569zm0 0" transform="translate(-31.819 -359.134)"/><path d="m31.105 15.417a7.681 7.681 0 0 0 7.472-9.571.642.642 0 0 0 -1.077-.3l-4 4-3.171-1.06-1.058-3.172 4-4a.642.642 0 0 0 -.3-1.078 7.684 7.684 0 0 0 -9.571 7.473 7.54 7.54 0 0 0 .156 1.505l-14.07 14.067a7.578 7.578 0 0 0 -1.5-.156 7.708 7.708 0 1 0 7.708 7.708 7.559 7.559 0 0 0 -.156-1.505l3.362-3.368 1.473 1.473a.643.643 0 0 0 .908 0l.321-.321a.72.72 0 0 1 1.02 1.018l-.321.321a.642.642 0 0 0 0 .908l7.662 7.662a5.184 5.184 0 1 0 7.365-7.3l-.033-.033-7.662-7.662a.642.642 0 0 0 -.908 0l-.321.321a.72.72 0 0 1 -1.02-1.017l.321-.321a.642.642 0 0 0 0-.908l-1.473-1.473 3.368-3.367a7.558 7.558 0 0 0 1.505.156zm2.524 21.839a3.9 3.9 0 0 1 -1.366-.249l5.017-5.017a3.9 3.9 0 0 1 -3.65 5.266zm-7.277-16.694a2 2 0 0 0 2.826 2.822l7.208 7.216c.078.078.151.161.222.245l-5.492 5.492c-.084-.071-.167-.144-.245-.222l-7.214-7.215a2 2 0 0 0 -2.826-2.823l-1.031-1.027 5.521-5.513zm2.594-6.46-14.572 14.568a.643.643 0 0 0 -.17.61 6.466 6.466 0 1 1 -4.67-4.67.648.648 0 0 0 .61-.169l14.568-14.569a.642.642 0 0 0 .169-.61 6.392 6.392 0 0 1 6.589-7.962l-3.388 3.39a.642.642 0 0 0 -.155.657l1.284 3.853a.643.643 0 0 0 .407.406l3.854 1.285a.642.642 0 0 0 .657-.155l3.388-3.388c.008.123.012.244.012.365a6.39 6.39 0 0 1 -7.976 6.224.643.643 0 0 0 -.61.169zm0 0" transform="translate(12.449 12.723)"/><path d="m390.222 389.048-.908.908-6.423-6.423.908-.908zm0 0" transform="translate(-344.287 -344.019)"/></g></g></svg>